<svg width="44" height="42" viewBox="0 0 44 42" fill="none" xmlns="http://www.w3.org/2000/svg">
<path d="M0.5 27.3333V0.5H42.1666V27.3333C42.1666 28.8951 40.895 30.1666 39.3333 30.1666H3.33333C1.77156 30.1666 0.5 28.8951 0.5 27.3333Z" transform="translate(0.606689 11.0026)" stroke="#FF5000"/>
<path d="M39.3333 0H3.33333C1.49541 0 0 1.49541 0 3.33333V9.33331H42.6666V3.33333C42.6666 1.49541 41.1711 0 39.3333 0ZM5.33332 6.66665C4.22874 6.66665 3.33333 5.77124 3.33333 4.66666C3.33333 3.56208 4.22874 2.66666 5.33332 2.66666C6.4379 2.66666 7.33332 3.56208 7.33332 4.66666C7.33332 5.77124 6.4379 6.66665 5.33332 6.66665ZM37.3333 6.66665C36.2287 6.66665 35.3333 5.77124 35.3333 4.66666C35.3333 3.56208 36.2287 2.66666 37.3333 2.66666C38.4378 2.66666 39.3333 3.56208 39.3333 4.66666C39.3333 5.77124 38.4378 6.66665 37.3333 6.66665Z" transform="translate(0.606445 1.66919)" fill="#FF5000"/>
<line y1="-0.5" x2="42.6666" y2="-0.5" transform="translate(0.606201 21.0781)" stroke="#FF5000"/>
<line y1="-0.5" x2="41.8787" y2="-0.5" transform="translate(1.24268 31.7448)" stroke="#FF5000"/>
<path d="M0.999998 6.66665C0.447916 6.66665 0 6.21907 0 5.66666V0.999998C0 0.447582 0.447916 0 0.999998 0C1.55208 0 2 0.447582 2 0.999998V5.66666C2 6.21907 1.55208 6.66665 0.999998 6.66665Z" transform="translate(4.9397 0.669189)" fill="#262626"/>
<path d="M0.999998 6.66665C0.447916 6.66665 0 6.21907 0 5.66666V0.999998C0 0.447582 0.447916 0 0.999998 0C1.55208 0 2 0.447582 2 0.999998V5.66666C2 6.21907 1.55208 6.66665 0.999998 6.66665Z" transform="translate(36.9397 0.669189)" fill="#262626"/>
<line y1="-0.5" x2="30.1499" y2="-0.5" transform="translate(32.7861 11.0026) rotate(90)" stroke="#FF5000"/>
<line y1="-0.5" x2="30.1499" y2="-0.5" transform="translate(21.7883 11.0026) rotate(90)" stroke="#FF5000"/>
<line y1="-0.5" x2="30.1499" y2="-0.5" transform="translate(11.198 11.0026) rotate(90)" stroke="#FF5000"/>
</svg>
