<svg width="35" height="36" viewBox="0 0 35 36" fill="none" xmlns="http://www.w3.org/2000/svg">
<rect width="34.0542" height="34.0542" rx="5" transform="translate(0.916321 0.948486)" fill="#FF5000"/>
<path d="M17.2513 11.3759H16.7806V7.55317C16.7806 3.47821 13.5468 0.0741532 9.505 0.00150901C9.39466 -0.000503003 9.17387 -0.000503003 9.06353 0.00150901C5.02166 0.0741002 1.78794 3.47816 1.78794 7.55311V7.63799C1.78794 8.49479 2.4825 9.18936 3.3393 9.18936C4.1961 9.18936 4.89062 8.49479 4.89062 7.63799V7.55311C4.89062 5.12573 6.86329 3.11864 9.28421 3.11864C11.7051 3.11864 13.6779 5.12573 13.6779 7.55311V11.3758H1.31723C0.591743 11.3758 -4.8475e-08 12.1245 -4.8475e-08 13.0491V24.0993C-4.8475e-08 25.0227 0.591743 25.7784 1.31723 25.7784H17.2513C17.9769 25.7784 18.5686 25.0228 18.5686 24.0993V13.049C18.5686 12.1244 17.9769 11.3759 17.2513 11.3759ZM10.7771 18.5629V21.9019C10.7771 22.2843 10.4569 22.6078 10.0743 22.6078H8.49428C8.11158 22.6078 7.79151 22.2843 7.79151 21.9019V18.5629C7.4204 18.1976 7.20432 17.6925 7.20432 17.1337C7.20432 16.0748 8.02284 15.1649 9.06358 15.1229C9.17387 15.1184 9.39477 15.1184 9.505 15.1229C10.5457 15.1649 11.3643 16.0748 11.3643 17.1337C11.3643 17.6924 11.1482 18.1976 10.7771 18.5629Z" transform="translate(8.41559 4.58252)" fill="white"/>
</svg>
