<svg width="35" height="35" viewBox="0 0 35 35" fill="none" xmlns="http://www.w3.org/2000/svg">
<rect width="34.0542" height="34.0542" rx="5" transform="translate(0.827637 0.758301)" fill="#4A4A4A"/>
<path d="M18.4241 9.47528H16.8449V7.36964C16.8449 3.30598 13.539 0 9.47528 0C5.41157 0 2.10563 3.30598 2.10563 7.36964V9.47528H0.526421C0.235451 9.47528 0 9.71073 0 10.0017V23.1618C0 24.3231 0.94432 25.2674 2.10563 25.2674H16.845C18.0062 25.2674 18.9506 24.3231 18.9506 23.1618V10.0017C18.9506 9.71073 18.7151 9.47528 18.4241 9.47528ZM11.0514 20.4717C11.0679 20.6202 11.0201 20.7693 10.9204 20.8809C10.8206 20.9924 10.6777 21.0562 10.5281 21.0562H8.42248C8.2729 21.0562 8.12998 20.9924 8.03025 20.8809C7.93051 20.7694 7.88269 20.6203 7.89917 20.4717L8.23125 17.4855C7.692 17.0932 7.36969 16.4728 7.36969 15.7921C7.36969 14.6309 8.31401 13.6865 9.47533 13.6865C10.6366 13.6865 11.581 14.6308 11.581 15.7921C11.581 16.4728 11.2587 17.0932 10.7194 17.4855L11.0514 20.4717ZM13.6865 9.47528H5.26406V7.36964C5.26406 5.04761 7.15324 3.15843 9.47528 3.15843C11.7973 3.15843 13.6865 5.04761 13.6865 7.36964V9.47528V9.47528Z" transform="translate(8.63818 5.35205)" fill="white"/>
</svg>
